<svg width="100" height="100" viewBox="0 0 100 100" version="1.1" xmlns="http://www.w3.org/2000/svg" xmlns:xlink="http://www.w3.org/1999/xlink">
<title>Frame</title>
<desc>Created using Figma</desc>
<g id="Canvas" transform="translate(-24261 10400)">
<clipPath id="clip-0" clip-rule="evenodd">
<path d="M 24261 -10400L 24361 -10400L 24361 -10300L 24261 -10300L 24261 -10400Z" fill="#FFFFFF"/>
</clipPath>
<g id="Frame" clip-path="url(#clip-0)">
<mask id="mask0_alpha" mask-type="alpha">
<g id="Ellipse">
<use xlink:href="#path0_fill" transform="translate(24261 -10400)" fill="#F2C94C"/>
</g>
</mask>
<g id="Vector" mask="url(#mask0_alpha)">
<use xlink:href="#path1_fill" transform="translate(24261 -10406.5)" fill="#F2C94C"/>
<use xlink:href="#path2_fill" transform="translate(24261 -10406.5)" fill="#F2C94C"/>
</g>
</g>
</g>
<defs>
<path id="path0_fill" d="M 100 50C 100 77.6142 77.6142 100 50 100C 22.3858 100 0 77.6142 0 50C 0 22.3858 22.3858 0 50 0C 77.6142 0 100 22.3858 100 50Z"/>
<path id="path1_fill" d="M 22.0488 79.2C 30.5928 86.688 38.9448 90.432 47.1048 90.432C 50.7528 90.432 53.9208 89.52 56.6088 87.696C 59.3928 85.776 60.7848 83.04 60.7848 79.488C 60.7848 74.592 56.2248 70.8 47.1048 68.112C 46.8168 68.016 45.6648 67.68 43.6488 67.104C 38.4648 65.664 34.3848 64.32 31.4088 63.072C 28.4328 61.824 25.4568 60.096 22.4808 57.888C 19.5048 55.584 17.3928 52.704 16.1448 49.248C 14.8968 45.792 14.2728 41.52 14.2728 36.432C 14.2728 29.0033 15.8873 22.5698 19.1164 17.1315C 7.47584 26.2862 0 40.4981 0 56.456C 0 70.4949 5.78594 83.1825 15.1033 92.2642L 22.0488 79.2Z"/>
<path id="path2_fill" fill-rule="evenodd" d="M 81.3122 17.4724L 85.6968 8.928C 80.8968 6.24 75.3768 4.08 69.1368 2.448C 62.9928 0.816 57.1848 0 51.7128 0C 40.7688 0 31.7928 3.36 24.7848 10.08C 22.5338 12.2077 20.6443 14.5582 19.1164 17.1315C 27.619 10.4447 38.3437 6.456 50 6.456C 61.853 6.456 72.7427 10.5804 81.3122 17.4724ZM 15.1033 92.2642L 9.95281 101.952C 21.7608 110.208 34.4808 114.336 48.1128 114.336C 60.5928 114.336 70.8648 110.928 78.9288 104.112C 83.6006 100.159 86.815 94.8794 88.572 88.2733C 95.7111 79.6285 100 68.5431 100 56.456C 100 40.6948 92.7073 26.6368 81.3122 17.4724L 74.4648 30.816C 68.7048 26.016 62.4648 23.616 55.7448 23.616C 52.7688 23.616 49.9848 24.432 47.3928 26.064C 44.8968 27.696 43.6488 29.904 43.6488 32.688C 43.6488 34.608 44.4168 36.336 45.9528 37.872C 47.5848 39.408 49.0728 40.464 50.4168 41.04C 51.8568 41.616 53.7768 42.288 56.1768 43.056L 63.3768 45.216C 71.8248 47.712 78.4008 51.264 83.1048 55.872C 87.8088 60.384 90.1608 66.72 90.1608 74.88C 90.1608 79.8265 89.6312 84.2909 88.572 88.2733C 79.4012 99.3784 65.5271 106.456 50 106.456C 36.4247 106.456 24.113 101.046 15.1033 92.2642Z"/>
</defs>
</svg>
